M48
; DRILL file {KiCad (5.1.6)-1} date 02/03/21 20:05:03
; FORMAT={-:-/ absolute / inch / decimal}
; #@! TF.CreationDate,2021-02-03T20:05:03-07:00
; #@! TF.GenerationSoftware,Kicad,Pcbnew,(5.1.6)-1
FMAT,2
INCH
T1C0.0157
T2C0.0315
T3C0.0374
T4C0.0394
T5C0.0598
T6C0.0984
%
G90
G05
T1
X6.25Y-4.0
X6.65Y-4.0
X6.9Y-4.0
X7.0Y-4.1
X7.1Y-3.8
X7.1Y-3.875
X7.3Y-3.65
X7.5Y-5.5
X7.7Y-3.9
X7.8Y-4.2
X8.175Y-4.5
X8.3Y-3.7
T2
X7.1Y-3.8
X7.2Y-3.8
X7.3Y-3.8
T3
X7.6Y-5.4
X7.6Y-5.5
X7.7Y-5.4
X7.7Y-5.5
X7.8Y-5.4
X7.8Y-5.5
X7.9Y-5.4
X7.9Y-5.5
X8.0Y-5.4
X8.0Y-5.5
X8.1Y-5.4
X8.1Y-5.5
X8.2Y-5.4
X8.2Y-5.5
X8.3Y-5.4
X8.3Y-5.5
X8.4Y-5.4
X8.4Y-5.5
X8.5Y-5.4
X8.5Y-5.5
X7.6Y-3.7
X7.6Y-3.8
X7.7Y-3.7
X7.7Y-3.8
X7.8Y-3.7
X7.8Y-3.8
X7.9Y-3.7
X7.9Y-3.8
X8.0Y-3.7
X8.0Y-3.8
X8.1Y-3.7
X8.1Y-3.8
X8.2Y-3.7
X8.2Y-3.8
X8.3Y-3.7
X8.3Y-3.8
X8.4Y-3.7
X8.4Y-3.8
X8.5Y-3.7
X8.5Y-3.8
T4
X7.6Y-4.2
X7.7Y-4.2
X6.8Y-4.2
X6.9Y-4.2
X7.0Y-4.2
X7.1Y-4.2
T5
X6.25Y-3.8
X6.45Y-3.8
X6.65Y-3.8
X6.85Y-3.8
T6
X6.275Y-5.425
X8.575Y-4.875
X6.275Y-4.225
T0
M30
